<svg width="120" height="120" viewBox="0 0 120 120" fill="none" xmlns="http://www.w3.org/2000/svg">
<rect width="120" height="120" fill="#599658"/>
<path d="M28.8465 61H18.4061L30.1689 25.3636H43.3933L55.1561 61H44.7158L36.9203 35.1776H36.6419L28.8465 61ZM26.8976 46.9403H46.5254V54.179H26.8976V46.9403ZM58.5884 61V25.3636H73.9705C76.6154 25.3636 78.9296 25.8857 80.9133 26.9297C82.897 27.9737 84.4398 29.4412 85.5419 31.332C86.6439 33.2229 87.1949 35.4328 87.1949 37.9616C87.1949 40.5137 86.6265 42.7236 85.4897 44.5913C84.3644 46.4589 82.781 47.8974 80.7393 48.9066C78.7092 49.9158 76.337 50.4205 73.6225 50.4205H64.435V42.9034H71.6736C72.8104 42.9034 73.7791 42.7062 74.5795 42.3118C75.3915 41.9058 76.0121 41.3316 76.4414 40.5891C76.8822 39.8467 77.1026 38.9709 77.1026 37.9616C77.1026 36.9408 76.8822 36.0708 76.4414 35.3516C76.0121 34.6207 75.3915 34.0639 74.5795 33.6811C73.7791 33.2867 72.8104 33.0895 71.6736 33.0895H68.2631V61H58.5884ZM100.419 25.3636V61H90.7446V25.3636H100.419Z" fill="white"/>
<path d="M30.0057 87.5C29.9584 86.9081 29.7364 86.4465 29.3399 86.1151C28.9493 85.7836 28.3544 85.6179 27.5554 85.6179C27.0464 85.6179 26.6292 85.68 26.3037 85.8043C25.9841 85.9227 25.7473 86.0855 25.5934 86.2926C25.4396 86.4998 25.3597 86.7365 25.3537 87.0028C25.3419 87.2218 25.3804 87.4201 25.4691 87.5977C25.5638 87.7693 25.7118 87.9261 25.913 88.0682C26.1143 88.2043 26.3717 88.3286 26.6854 88.4411C26.9991 88.5535 27.372 88.6541 27.804 88.7429L29.2955 89.0625C30.3017 89.2756 31.1628 89.5567 31.879 89.9059C32.5951 90.2551 33.181 90.6664 33.6368 91.1399C34.0925 91.6075 34.4269 92.1342 34.64 92.7202C34.8589 93.3061 34.9714 93.9453 34.9773 94.6378C34.9714 95.8333 34.6725 96.8454 34.0807 97.674C33.4888 98.5026 32.6424 99.1329 31.5416 99.565C30.4467 99.997 29.1298 100.213 27.591 100.213C26.0107 100.213 24.6317 99.9793 23.4539 99.5117C22.282 99.0442 21.3705 98.325 20.7195 97.3544C20.0744 96.3778 19.7489 95.129 19.7429 93.608H24.4304C24.46 94.1643 24.5991 94.6319 24.8477 95.0107C25.0963 95.3894 25.4455 95.6765 25.8953 95.8718C26.351 96.0671 26.8926 96.1648 27.5199 96.1648C28.0467 96.1648 28.4876 96.0997 28.8427 95.9695C29.1978 95.8393 29.4671 95.6587 29.6506 95.4279C29.8341 95.1971 29.9288 94.9337 29.9347 94.6378C29.9288 94.3596 29.837 94.117 29.6595 93.9098C29.4879 93.6967 29.2038 93.5073 28.8072 93.3416C28.4107 93.17 27.875 93.0102 27.2003 92.8622L25.3892 92.4716C23.7794 92.1224 22.5099 91.5394 21.5807 90.7227C20.6574 89.9 20.1987 88.7784 20.2046 87.358C20.1987 86.2038 20.5064 85.1947 21.1279 84.3306C21.7553 83.4606 22.6223 82.7829 23.7291 82.2976C24.8418 81.8123 26.1172 81.5696 27.5554 81.5696C29.0232 81.5696 30.2928 81.8152 31.364 82.3065C32.4353 82.7977 33.2609 83.4902 33.841 84.3839C34.4269 85.2717 34.7228 86.3104 34.7287 87.5H30.0057ZM54.4686 90.9091C54.4686 92.9332 54.075 94.6407 53.2879 96.0316C52.5007 97.4165 51.4383 98.4671 50.1007 99.1832C48.7631 99.8935 47.2716 100.249 45.6263 100.249C43.9691 100.249 42.4717 99.8905 41.1341 99.1744C39.8024 98.4523 38.743 97.3988 37.9558 96.0138C37.1746 94.623 36.784 92.9214 36.784 90.9091C36.784 88.8849 37.1746 87.1804 37.9558 85.7955C38.743 84.4046 39.8024 83.354 41.1341 82.6438C42.4717 81.9277 43.9691 81.5696 45.6263 81.5696C47.2716 81.5696 48.7631 81.9277 50.1007 82.6438C51.4383 83.354 52.5007 84.4046 53.2879 85.7955C54.075 87.1804 54.4686 88.8849 54.4686 90.9091ZM49.3905 90.9091C49.3905 89.8201 49.2455 88.9027 48.9555 88.157C48.6714 87.4053 48.2482 86.8371 47.6859 86.4524C47.1296 86.0618 46.443 85.8665 45.6263 85.8665C44.8095 85.8665 44.12 86.0618 43.5578 86.4524C43.0014 86.8371 42.5782 87.4053 42.2882 88.157C42.0041 88.9027 41.8621 89.8201 41.8621 90.9091C41.8621 91.9981 42.0041 92.9184 42.2882 93.6701C42.5782 94.4158 43.0014 94.984 43.5578 95.3746C44.12 95.7594 44.8095 95.9517 45.6263 95.9517C46.443 95.9517 47.1296 95.7594 47.6859 95.3746C48.2482 94.984 48.6714 94.4158 48.9555 93.6701C49.2455 92.9184 49.3905 91.9981 49.3905 90.9091ZM43.9928 80.1136L45.6973 76.1364H49.8877L47.2243 80.1136H43.9928ZM73.7269 88.6364H68.7198C68.6843 88.2221 68.5896 87.8462 68.4357 87.5089C68.2877 87.1715 68.0806 86.8815 67.8142 86.6388C67.5538 86.3903 67.2372 86.2009 66.8643 86.0707C66.4914 85.9345 66.0683 85.8665 65.5948 85.8665C64.7662 85.8665 64.0648 86.0677 63.4907 86.4702C62.9225 86.8726 62.4905 87.4497 62.1946 88.2013C61.9045 88.953 61.7595 89.8556 61.7595 90.9091C61.7595 92.0218 61.9075 92.954 62.2034 93.7056C62.5053 94.4513 62.9403 95.0136 63.5085 95.3924C64.0767 95.7653 64.7603 95.9517 65.5593 95.9517C66.015 95.9517 66.4234 95.8955 66.7844 95.783C67.1454 95.6647 67.4591 95.496 67.7255 95.277C67.9918 95.058 68.2078 94.7946 68.3735 94.4869C68.5452 94.1732 68.6606 93.821 68.7198 93.4304L73.7269 93.4659C73.6677 94.2353 73.4517 95.0195 73.0788 95.8185C72.7059 96.6116 72.1762 97.3455 71.4897 98.0202C70.809 98.689 69.9656 99.2276 68.9595 99.636C67.9533 100.044 66.7844 100.249 65.4527 100.249C63.7837 100.249 62.2863 99.8905 60.9605 99.1744C59.6407 98.4582 58.5961 97.4047 57.8267 96.0138C57.0632 94.623 56.6814 92.9214 56.6814 90.9091C56.6814 88.8849 57.072 87.1804 57.8533 85.7955C58.6345 84.4046 59.688 83.354 61.0138 82.6438C62.3396 81.9277 63.8192 81.5696 65.4527 81.5696C66.6009 81.5696 67.6574 81.7264 68.6221 82.0401C69.5868 82.3538 70.4332 82.8125 71.1612 83.4162C71.8892 84.014 72.4751 84.7508 72.919 85.6268C73.3629 86.5027 73.6322 87.5059 73.7269 88.6364ZM80.9024 81.8182V100H75.9663V81.8182H80.9024ZM100.855 90.9091C100.855 92.9332 100.462 94.6407 99.6746 96.0316C98.8874 97.4165 97.825 98.4671 96.4874 99.1832C95.1498 99.8935 93.6584 100.249 92.013 100.249C90.3558 100.249 88.8584 99.8905 87.5208 99.1744C86.1891 98.4523 85.1297 97.3988 84.3426 96.0138C83.5613 94.623 83.1707 92.9214 83.1707 90.9091C83.1707 88.8849 83.5613 87.1804 84.3426 85.7955C85.1297 84.4046 86.1891 83.354 87.5208 82.6438C88.8584 81.9277 90.3558 81.5696 92.013 81.5696C93.6584 81.5696 95.1498 81.9277 96.4874 82.6438C97.825 83.354 98.8874 84.4046 99.6746 85.7955C100.462 87.1804 100.855 88.8849 100.855 90.9091ZM95.7772 90.9091C95.7772 89.8201 95.6322 88.9027 95.3422 88.157C95.0581 87.4053 94.6349 86.8371 94.0727 86.4524C93.5163 86.0618 92.8298 85.8665 92.013 85.8665C91.1962 85.8665 90.5067 86.0618 89.9445 86.4524C89.3881 86.8371 88.9649 87.4053 88.6749 88.157C88.3908 88.9027 88.2488 89.8201 88.2488 90.9091C88.2488 91.9981 88.3908 92.9184 88.6749 93.6701C88.9649 94.4158 89.3881 94.984 89.9445 95.3746C90.5067 95.7594 91.1962 95.9517 92.013 95.9517C92.8298 95.9517 93.5163 95.7594 94.0727 95.3746C94.6349 94.984 95.0581 94.4158 95.3422 93.6701C95.6322 92.9184 95.7772 91.9981 95.7772 90.9091Z" fill="white"/>
</svg>
